<?xml version="1.0" standalone="no"?>
<!DOCTYPE svg PUBLIC "-//W3C//DTD SVG 20010904//EN"
 "http://www.w3.org/TR/2001/REC-SVG-20010904/DTD/svg10.dtd">
<svg version="1.0" xmlns="http://www.w3.org/2000/svg"
 width="1202.000000pt" height="1202.000000pt" viewBox="0 0 1202.000000 1202.000000"
 preserveAspectRatio="xMidYMid meet">
<metadata>
Created by potrace 1.11, written by Peter Selinger 2001-2013
</metadata>
<g transform="translate(0.000000,1202.000000) scale(0.100000,-0.100000)"
fill="#000000" stroke="none">
<path d="M5799 9716 c-2 -2 -49 -6 -105 -10 -55 -4 -112 -9 -125 -11 -13 -3
-46 -8 -74 -11 -45 -5 -269 -45 -320 -57 -427 -100 -828 -272 -1210 -520 -79
-51 -290 -207 -330 -244 -11 -10 -52 -45 -90 -78 -119 -103 -333 -324 -406
-420 -13 -16 -26 -32 -29 -35 -15 -13 -133 -175 -197 -270 -292 -436 -509
-992 -578 -1480 -3 -25 -8 -56 -10 -70 -2 -14 -6 -45 -9 -70 -3 -25 -8 -76
-13 -115 -10 -94 -10 -538 1 -650 14 -152 18 -177 52 -365 63 -345 174 -671
336 -990 38 -74 73 -142 78 -150 6 -8 31 -51 58 -95 77 -129 260 -391 291
-415 3 -3 26 -30 51 -60 142 -176 384 -406 596 -567 79 -60 337 -233 348 -233
3 0 22 -12 43 -26 58 -39 364 -187 493 -237 164 -64 429 -145 560 -171 131
-26 250 -46 296 -51 30 -4 64 -8 75 -10 137 -27 634 -27 854 -1 17 2 55 7 85
10 30 4 62 9 70 11 8 2 33 6 55 10 117 16 344 72 500 122 671 214 1280 628
1736 1178 405 490 677 1079 792 1715 12 65 17 98 21 136 3 22 7 56 10 75 20
114 30 598 16 724 -5 39 -14 120 -20 180 -7 61 -14 119 -16 130 -3 11 -11 58
-20 105 -8 47 -17 93 -20 102 -3 9 -7 27 -9 39 -22 112 -104 372 -172 544 -48
120 -169 374 -190 397 -9 10 -13 18 -10 18 11 0 -128 223 -211 340 -137 194
-256 334 -429 506 -195 195 -487 422 -698 544 -141 82 -197 111 -310 165 -177
84 -185 87 -310 133 -187 68 -427 136 -555 157 -19 3 -51 10 -70 15 -19 4 -57
11 -85 14 -27 3 -60 8 -73 10 -13 3 -53 8 -90 12 -36 3 -75 8 -87 11 -24 5
-540 14 -546 9z"/>
</g>
</svg>
